<svg width="134" height="12" viewBox="0 0 134 12" fill="none" xmlns="http://www.w3.org/2000/svg">
<path d="M8.99609 11H6.93848V2.70801H2.95312V11H0.902344V1.04688H8.99609V11ZM14.9532 5.75L16.7647 1.04688H18.9796L15.5001 9.25684L15.2198 9.79688C14.7048 10.6947 13.9164 11.1436 12.8546 11.1436L12.1368 11.1162L12.1163 9.46875C12.2257 9.48698 12.4034 9.49609 12.6495 9.49609C12.9366 9.49609 13.1667 9.44596 13.3399 9.3457C13.5177 9.24544 13.6658 9.06087 13.7843 8.79199L14.0372 8.14258L10.544 1.04688H12.752L14.9532 5.75ZM28.5871 11H26.5363V6.73438H22.5373V11H20.4865V1.04688H22.5373V5.08008H26.5363V1.04688H28.5871V11ZM34.052 6.93262H32.8694V11H30.8186V1.04688H32.8694V5.03223H33.8059L36.2395 1.04688H38.7414L35.6721 5.75684L39.0627 11H36.6155L34.052 6.93262ZM47.7679 2.70801H44.7191V11H42.6683V2.70801H39.6605V1.04688H47.7679V2.70801ZM53.0961 5.75L54.9076 1.04688H57.1225L53.643 9.25684L53.3627 9.79688C52.8477 10.6947 52.0593 11.1436 50.9975 11.1436L50.2797 11.1162L50.2592 9.46875C50.3686 9.48698 50.5463 9.49609 50.7924 9.49609C51.0795 9.49609 51.3096 9.44596 51.4828 9.3457C51.6605 9.24544 51.8087 9.06087 51.9271 8.79199L52.1801 8.14258L48.6869 1.04688H50.8949L53.0961 5.75ZM63.6196 8.94922H60.0239L59.3403 11H57.1596L60.8647 1.04688H62.7651L66.4907 11H64.31L63.6196 8.94922ZM60.5776 7.28809H63.0659L61.8149 3.5625L60.5776 7.28809ZM76.0572 1.04688V11H73.9996V2.70801H71.3472L71.1832 6.22168C71.1148 7.40658 70.9644 8.34082 70.732 9.02441C70.4996 9.70345 70.1601 10.2025 69.7134 10.5215C69.2668 10.8359 68.6561 10.9954 67.8814 11H67.3482V9.35254L67.69 9.31836C68.205 9.25 68.5718 8.95378 68.7906 8.42969C69.0139 7.90104 69.1552 6.96224 69.2144 5.61328L69.3853 1.04688H76.0572ZM80.319 4.63574H81.9186C83.0898 4.63574 84.0172 4.92057 84.7008 5.49023C85.389 6.05534 85.733 6.81868 85.733 7.78027C85.733 8.74642 85.3913 9.52344 84.7077 10.1113C84.0286 10.6947 83.124 10.9909 81.9938 11H78.2545V1.04688H80.319V4.63574ZM80.319 6.29004V9.35254H81.9528C82.4769 9.35254 82.8939 9.20898 83.2038 8.92188C83.5182 8.63477 83.6754 8.24967 83.6754 7.7666C83.6754 7.31543 83.525 6.95996 83.2243 6.7002C82.928 6.43587 82.5202 6.29915 82.0006 6.29004H80.319ZM95.5525 11H93.5017V6.73438H89.5027V11H87.4519V1.04688H89.5027V5.08008H93.5017V1.04688H95.5525V11ZM105.946 6.24902C105.946 7.22884 105.773 8.08789 105.427 8.82617C105.08 9.56445 104.583 10.1341 103.936 10.5352C103.294 10.9362 102.555 11.1367 101.721 11.1367C100.897 11.1367 100.161 10.9385 99.5135 10.542C98.8663 10.1455 98.365 9.5804 98.0096 8.84668C97.6541 8.1084 97.4741 7.26074 97.4695 6.30371V5.81152C97.4695 4.83171 97.645 3.97038 97.9959 3.22754C98.3514 2.48014 98.8504 1.9082 99.493 1.51172C100.14 1.11068 100.878 0.910156 101.708 0.910156C102.537 0.910156 103.273 1.11068 103.916 1.51172C104.563 1.9082 105.062 2.48014 105.413 3.22754C105.768 3.97038 105.946 4.82943 105.946 5.80469V6.24902ZM103.868 5.79785C103.868 4.75423 103.681 3.96126 103.307 3.41895C102.934 2.87663 102.401 2.60547 101.708 2.60547C101.02 2.60547 100.489 2.87435 100.115 3.41211C99.7413 3.94531 99.5522 4.72917 99.5477 5.76367V6.24902C99.5477 7.2653 99.7345 8.05371 100.108 8.61426C100.482 9.1748 101.02 9.45508 101.721 9.45508C102.41 9.45508 102.938 9.1862 103.307 8.64844C103.677 8.10612 103.863 7.31771 103.868 6.2832V5.79785ZM115.67 7.68457C115.592 8.75553 115.196 9.59863 114.48 10.2139C113.769 10.8291 112.831 11.1367 111.664 11.1367C110.388 11.1367 109.383 10.7083 108.649 9.85156C107.92 8.99023 107.556 7.8099 107.556 6.31055V5.70215C107.556 4.74512 107.724 3.90202 108.061 3.17285C108.399 2.44368 108.879 1.88542 109.504 1.49805C110.133 1.10612 110.862 0.910156 111.691 0.910156C112.84 0.910156 113.765 1.21777 114.467 1.83301C115.169 2.44824 115.574 3.31185 115.683 4.42383H113.633C113.583 3.78125 113.403 3.31641 113.093 3.0293C112.787 2.73763 112.32 2.5918 111.691 2.5918C111.008 2.5918 110.495 2.83789 110.153 3.33008C109.816 3.81771 109.643 4.5765 109.634 5.60645V6.3584C109.634 7.43392 109.795 8.22005 110.119 8.7168C110.447 9.21354 110.962 9.46191 111.664 9.46191C112.297 9.46191 112.769 9.31836 113.079 9.03125C113.393 8.73958 113.573 8.29069 113.619 7.68457H115.67ZM124.724 2.70801H121.675V11H119.624V2.70801H116.616V1.04688H124.724V2.70801ZM128.48 4.63574H130.079C131.25 4.63574 132.178 4.92057 132.861 5.49023C133.55 6.05534 133.894 6.81868 133.894 7.78027C133.894 8.74642 133.552 9.52344 132.868 10.1113C132.189 10.6947 131.285 10.9909 130.154 11H126.415V1.04688H128.48V4.63574ZM128.48 6.29004V9.35254H130.113C130.637 9.35254 131.054 9.20898 131.364 8.92188C131.679 8.63477 131.836 8.24967 131.836 7.7666C131.836 7.31543 131.686 6.95996 131.385 6.7002C131.089 6.43587 130.681 6.29915 130.161 6.29004H128.48Z" fill="#212121"/>
</svg>
